<?xml version="1.0" standalone="no"?>
<!DOCTYPE svg PUBLIC "-//W3C//DTD SVG 20010904//EN"
 "http://www.w3.org/TR/2001/REC-SVG-20010904/DTD/svg10.dtd">
<svg version="1.0" xmlns="http://www.w3.org/2000/svg"
 width="530.000000pt" height="303.000000pt" viewBox="0 0 530.000000 303.000000"
 preserveAspectRatio="xMidYMid meet">

<g transform="translate(0.000000,303.000000) scale(0.100000,-0.100000)"
fill="#000000" stroke="none">
<path d="M0 1950 l0 -1080 770 0 770 0 0 1080 0 1080 -770 0 -770 0 0 -1080z
m1037 508 c6 -7 110 -296 232 -643 161 -454 220 -634 213 -645 -7 -12 -43 -15
-199 -18 l-191 -2 -15 32 c-8 18 -34 93 -58 166 l-43 132 -182 0 -182 0 -35
-112 c-20 -62 -41 -132 -48 -156 -7 -23 -18 -47 -24 -52 -8 -7 -83 -9 -196 -8
-176 3 -184 4 -187 23 -3 21 418 1239 440 1275 12 19 23 20 239 20 169 0 229
-3 236 -12z"/>
<path d="M586 2432 c-5 -9 -436 -1242 -436 -1248 0 -2 76 -4 168 -4 l168 0 50
163 50 162 206 3 206 2 54 -162 55 -163 176 -3 177 -2 -45 127 c-25 71 -125
354 -223 630 l-177 503 -212 0 c-116 0 -214 -4 -217 -8z m214 -238 c0 -11 126
-405 147 -461 4 -10 -30 -13 -151 -13 -86 0 -156 3 -156 8 0 4 24 84 54 177
29 94 61 203 71 242 9 40 21 70 26 67 5 -3 9 -12 9 -20z"/>
<path d="M780 2089 c0 -8 -22 -87 -50 -174 -27 -87 -50 -160 -50 -162 0 -2 51
-3 114 -3 l114 0 -55 168 c-52 158 -73 206 -73 171z"/>
<path d="M3720 1950 l0 -1080 770 0 770 0 0 1080 0 1080 -770 0 -770 0 0
-1080z m1234 511 c43 -10 87 -28 98 -38 19 -19 19 -21 -13 -129 -17 -60 -39
-117 -49 -128 -17 -18 -20 -17 -101 3 -197 50 -405 15 -512 -88 -108 -102
-138 -298 -68 -447 47 -101 118 -156 244 -190 68 -18 234 -18 322 1 90 19 112
19 123 -2 5 -10 20 -66 32 -125 17 -82 20 -111 11 -122 -16 -19 -111 -44 -216
-56 -359 -40 -653 47 -815 241 -97 116 -140 243 -140 408 1 201 54 336 185
466 172 171 371 239 675 230 96 -3 172 -11 224 -24z"/>
<path d="M4550 2454 c-19 -3 -73 -14 -120 -26 -335 -81 -529 -316 -530 -639 0
-304 180 -524 494 -600 109 -26 286 -35 411 -20 91 11 201 33 211 44 6 6 -37
200 -46 210 -4 5 -42 1 -83 -7 -97 -20 -265 -21 -340 -1 -196 51 -306 192
-307 390 0 204 111 349 307 400 74 19 239 19 328 -1 39 -9 76 -16 84 -17 10
-1 24 32 46 106 38 125 42 117 -77 143 -72 15 -310 26 -378 18z"/>
<path d="M2285 2439 c-60 -5 -115 -11 -122 -14 -10 -3 -13 -132 -13 -619 l0
-615 38 -8 c20 -4 154 -8 297 -7 228 0 272 2 358 21 178 39 290 111 343 219
85 175 -2 363 -201 430 l-47 17 63 33 c121 65 163 127 163 239 0 80 -20 129
-76 181 -43 41 -142 90 -220 110 -77 19 -421 27 -583 13z m482 -227 c54 -28
77 -70 70 -129 -9 -84 -71 -120 -228 -136 -58 -5 -114 -7 -123 -4 -14 5 -16
26 -16 145 0 76 3 142 8 146 4 4 61 6 127 4 100 -3 127 -7 162 -26z m-15 -497
c169 -61 166 -253 -4 -311 -38 -13 -85 -18 -163 -18 l-110 -1 -3 179 -2 178
117 -5 c74 -3 136 -11 165 -22z"/>
<path d="M221 515 c-114 -36 -175 -185 -137 -334 23 -91 48 -126 110 -156 49
-24 61 -25 172 -23 l119 3 3 33 c6 56 -7 62 -135 62 -108 0 -115 1 -138 25
-18 17 -25 35 -25 61 l0 36 148 -3 147 -4 3 35 c5 54 -12 60 -165 60 l-133 0
0 34 c0 19 9 44 19 57 18 23 27 24 143 27 79 3 126 8 130 15 15 23 8 56 -14
71 -29 20 -184 21 -247 1z"/>
<path d="M600 265 l0 -265 55 0 55 0 2 187 3 187 106 -185 106 -184 62 -3 61
-3 0 266 0 265 -50 0 -50 0 -2 -184 -3 -183 -106 181 -106 181 -67 3 -66 3 0
-266z"/>
<path d="M1300 517 c-68 -19 -118 -54 -143 -101 -19 -35 -22 -57 -22 -151 0
-99 3 -116 25 -160 21 -40 36 -54 80 -77 53 -26 61 -27 208 -28 l152 0 0 149
c0 127 -2 150 -16 155 -9 3 -60 6 -114 6 -76 0 -102 -4 -114 -16 -19 -18 -19
-16 -6 -48 8 -23 15 -25 77 -28 l68 -3 3 -58 3 -57 -99 0 c-142 0 -146 4 -150
153 -4 109 -3 115 21 143 l25 29 149 5 148 5 0 45 0 45 -125 2 c-75 1 -143 -3
-170 -10z"/>
<path d="M1710 265 l0 -265 50 0 50 0 0 265 0 265 -50 0 -50 0 0 -265z"/>
<path d="M1930 265 l0 -265 55 0 55 0 2 187 3 187 106 -185 106 -184 62 -3 61
-3 0 266 0 265 -50 0 -50 0 -2 -184 -3 -183 -106 181 -106 181 -67 3 -66 3 0
-266z"/>
<path d="M2611 515 c-114 -36 -175 -185 -137 -334 23 -91 48 -126 110 -156 49
-24 61 -25 172 -23 l119 3 3 33 c6 56 -7 62 -135 62 -108 0 -115 1 -138 25
-18 17 -25 35 -25 61 l0 36 148 -3 147 -4 3 35 c5 54 -12 60 -165 60 l-133 0
0 34 c0 19 9 44 19 57 18 23 27 24 143 27 79 3 126 8 130 15 15 23 8 56 -14
71 -29 20 -184 21 -247 1z"/>
<path d="M3111 515 c-114 -36 -175 -185 -137 -334 23 -91 48 -126 110 -156 49
-24 61 -25 172 -23 l119 3 3 33 c6 56 -7 62 -135 62 -108 0 -115 1 -138 25
-18 17 -25 35 -25 61 l0 36 148 -3 147 -4 3 35 c5 54 -12 60 -165 60 l-133 0
0 34 c0 19 9 44 19 57 18 23 27 24 143 27 79 3 126 8 130 15 15 23 8 56 -14
71 -29 20 -184 21 -247 1z"/>
<path d="M3497 523 c-4 -3 -7 -123 -7 -265 l0 -258 55 0 55 0 0 88 c0 55 4 92
12 100 16 16 111 15 153 -2 40 -17 51 -35 60 -101 12 -87 10 -85 72 -85 l55 0
-4 65 c-3 54 -9 70 -36 104 -39 49 -40 64 -3 106 36 41 46 97 29 150 -16 48
-59 79 -129 94 -54 12 -302 15 -312 4z m314 -114 c17 -17 20 -29 15 -57 -3
-19 -9 -39 -13 -43 -10 -10 -186 -15 -201 -5 -17 10 -25 68 -13 99 10 27 12
27 101 27 78 0 93 -3 111 -21z"/>
<path d="M4050 265 l0 -265 60 0 60 0 0 265 0 265 -60 0 -60 0 0 -265z"/>
<path d="M4270 265 l0 -265 55 0 55 0 2 187 3 187 106 -185 106 -184 62 -3 61
-3 0 266 0 265 -50 0 -50 0 -2 -184 -3 -183 -106 181 -106 181 -67 3 -66 3 0
-266z"/>
<path d="M4980 511 c-85 -27 -100 -39 -128 -99 -21 -47 -26 -72 -26 -147 -1
-77 3 -98 25 -146 16 -34 42 -68 64 -85 l38 -29 171 0 171 0 3 139 c2 93 -1
143 -9 152 -14 17 -209 20 -240 4 -21 -12 -25 -50 -7 -68 7 -7 35 -12 63 -12
70 0 87 -14 83 -70 l-3 -45 -92 -3 c-52 -1 -102 2 -113 8 -28 15 -43 83 -38
176 5 95 22 128 69 138 17 3 87 6 156 6 137 0 141 2 129 65 l-7 35 -127 -1
c-93 0 -142 -5 -182 -18z"/>
</g>
</svg>
